<?xml version="1.0" encoding="utf-8"?>
<svg xmlns="http://www.w3.org/2000/svg" viewBox="-320.44 -402.68 991.641 1013.357" width="991.641px" height="1013.36px">
  <path fill="#ffffff" fill-rule="evenodd" clip-rule="evenodd" d="M 270.876 -220.2 C 398.103 -220.2 471.039 -286.69 471.039 -402.68 C 471.039 -286.69 543.971 -220.2 671.201 -220.2 C 543.971 -220.2 471.039 -153.72 471.039 -37.728 C 471.039 -153.72 398.103 -220.2 270.876 -220.2 Z" style="fill: rgb(255, 255,255); stroke-width: 1;" transform="matrix(0.9999999999999999, 0, 0, 0.9999999999999999, 0, -1.1368683772161603e-13)"/>
  <path fill="#ffffff" fill-rule="evenodd" clip-rule="evenodd" d="M -320.44 516.585 C -254.68 516.585 -216.97 482.299 -216.97 422.492 C -216.97 482.299 -179.25 516.585 -113.5 516.585 C -179.25 516.585 -216.97 550.871 -216.97 610.677 C -216.97 550.871 -254.68 516.585 -320.44 516.585 Z" style="fill: rgb(255, 255,255); stroke-width: 1;" transform="matrix(0.9999999999999999, 0, 0, 0.9999999999999999, 0, -1.1368683772161603e-13)"/>
  <path fill="#ffffff" fill-rule="evenodd" clip-rule="evenodd" d="M 342.137 441.698 C 407.887 441.698 445.597 407.407 445.597 347.607 C 445.597 407.407 483.317 441.698 549.067 441.698 C 483.317 441.698 445.597 475.988 445.597 535.788 C 445.597 475.988 407.887 441.698 342.137 441.698 Z" style="fill: rgb(255, 255,255); stroke-width: 1;" transform="matrix(0.9999999999999999, 0, 0, 0.9999999999999999, 0, -1.1368683772161603e-13)"/>
  <path fill="#ffffff" d="M 88.539 -230.43 C -112.24 -230.43 -275.45 -67.224 -275.45 133.554 C -275.45 334.335 -112.24 497.46 88.539 497.46 C 289.321 497.46 452.446 334.335 452.446 133.554 C 452.446 -67.224 289.321 -230.43 88.539 -230.43 Z" style="stroke-width: 1.563;" transform="matrix(0.9999999999999999, 0, 0, 0.9999999999999999, 0, -1.1368683772161603e-13)"/>
</svg>
